<svg xmlns="http://www.w3.org/2000/svg" width="48px" height="48px" viewBox="0 0 48 48" fill="#000000">
    <path d="M34.68 4c-1.23-2-7.56-1.51-12.92.79-2.82 1.21-5.33 2.79-7.07 4.3 0 0-2.48 2.16-2.48 3.85l-1.44 20.88c0 6.8 5.22 11.29 13.24 11.29s13.24-4.19 13.24-11.07L34.86 5.06c-.02-.47-.18-1.06-.18-1.06zm-18.69 6.7c1.59-1.38 3.92-2.75 6.56-3.88 3.77-1.62 6.68-2.13 8.43-2.13 1.1 0 1.75.2 1.86.47.3.7-2.17 3.68-8.3 6.31-2.64 1.13-5.24 1.87-7.33 2.07-2.02.19-2.86-.19-2.96-.41-.1-.23.21-1.11 1.74-2.43zm-2.71 16.76l.86-12.14c.04.01.1.02.15.03.5.14 1.11.23 1.87.23.38 0 .79-.02 1.24-.06 2.29-.22 5.11-1.01 7.93-2.22 3.04-1.3 6.02-3.08 7.82-4.89l1.54 18.91c-11.23 3.79-18.75 1.67-21.41.14z"/>
    <path fill="none" d="M0 0h48v48H0z"/>
</svg>
