<svg xmlns="http://www.w3.org/2000/svg" width="48px" height="48px" viewBox="0 0 48 48" fill="#000000">
    <path d="M0 0h48v48H0z" fill="none"/>
    <path d="M24 4C12.95 4 4 12.95 4 24s8.95 20 20 20 20-8.95 20-20S35.05 4 24 4zm0 6c3.14 0 6.04 1.05 8.37 2.8l-4.33 4.33C26.85 16.43 25.48 16 24 16c-4.42 0-8 3.58-8 8 0 2.21.9 4.21 2.34 5.66L14.1 33.9C11.57 31.37 10 27.87 10 24c0-7.73 6.27-14 14-14zm9.9 23.9l-4.24-4.24C31.1 28.21 32 26.21 32 24c0-1.48-.43-2.85-1.13-4.04l4.33-4.33C36.95 17.96 38 20.86 38 24c0 3.87-1.57 7.37-4.1 9.9z"/>
</svg>
