<svg xmlns="http://www.w3.org/2000/svg" width="48px" height="48px" viewBox="0 0 48 48" fill="#000000">
    <path fill="none" d="M0 0h48v48H0z"/>
    <path d="M41.56 26.32l-12.11-6.03C29 20.11 28.52 20 28 20h-2v-4h3.5c3.31 0 6-2.69 6-6s-2.69-6-6-6c-1.5 0-2.28.44-3.5 1.5V4c0-2.21-1.79-4-4-4s-4 1.79-4 4v1.5C16.78 4.44 16 4 14.5 4c-3.31 0-6 2.69-6 6s2.69 6 6 6H18v16.63l-9.14-1.91c-.2-.04-.41-.07-.63-.07-.83 0-1.58.34-2.12.88L4 33.66l13.17 13.17C17.9 47.55 18.9 48 20 48h18.12c2.01 0 3.55-1.48 3.83-3.41l2.01-14.05c.03-.18.04-.36.04-.54 0-1.66-1.01-3.08-2.44-3.68zM18.5 14h-4c-2.21 0-4-1.79-4-4s1.79-4 4-4 4 1.79 4 4v4zm7-4c0-2.21 1.79-4 4-4s4 1.79 4 4-1.79 4-4 4h-4v-4z"/>
</svg>
