<svg xmlns="http://www.w3.org/2000/svg" width="48px" height="48px" viewBox="0 0 48 48" fill="#000000">
    <path d="M44 12.16c0-1.07-.8-1.97-1.9-2.31v-3C42.1 5.28 40.82 4 39.24 4H8.76C7.18 4 5.9 5.28 5.9 6.86v3c-1.1.33-1.9 1.24-1.9 2.3 0 .14.01.28.04.41L5.9 26.86l-.91 14.28c-.03.13-.04.27-.04.41C4.95 42.9 6.23 44 7.81 44h32.38c1.58 0 2.86-1.1 2.86-2.45 0-.14-.01-.28-.04-.41l-.91-14.28 1.86-14.28c.03-.14.04-.28.04-.42zM15.5 6c.83 0 1.5.67 1.5 1.5S16.33 9 15.5 9 14 8.33 14 7.5 14.67 6 15.5 6zm4.06 30c-2.66 0-5.52-1.43-5.56-4.86h2.16c0 2.16 1.62 3.12 3.4 3.12 2.01 0 3.4-1.05 3.4-3.34 0-1.74-.95-3.25-3.85-3.25h-1.5v-1.68h1.5c1.97 0 3.58-.97 3.58-3.08 0-2.11-1.13-3.16-3.14-3.16-2.12 0-3.24 1.4-3.24 3.08h-2.15c0-2.87 2.41-4.84 5.39-4.84 3.32 0 5.29 1.89 5.29 4.96 0 1.99-1.55 3.32-2.76 3.81 1.09.32 3.02 1.4 3.02 4.1.01 3.37-2.5 5.14-5.54 5.14zM34 36h-2V20.77l-5 1.25V20l6.65-2H34v18zM32.5 9c-.83 0-1.5-.67-1.5-1.5S31.67 6 32.5 6s1.5.67 1.5 1.5S33.33 9 32.5 9z"/>
    <path fill="none" d="M0 0h48v48H0z"/>
</svg>
