<?xml version="1.0" encoding="utf-8"?>
<!-- Generator: Adobe Illustrator 19.0.0, SVG Export Plug-In . SVG Version: 6.00 Build 0)  -->
<svg version="1.1" id="Layer_1" xmlns="http://www.w3.org/2000/svg" xmlns:xlink="http://www.w3.org/1999/xlink" x="0px" y="0px"
	 width="48px" height="48px" viewBox="0 0 48 48" enable-background="new 0 0 48 48" xml:space="preserve">
<g id="XMLID_686_">
	<rect id="XMLID_727_" fill="none" width="48" height="48"/>
	<g id="XMLID_687_">
		<g id="XMLID_694_">
			<defs>
				<path id="XMLID_695_" d="M19.01,42h5.49c0-1.47,0.43-2.84,1.16-4H17C17,39.64,17.79,41.09,19.01,42z M42,6H5v4h33L42,6z M19,34
					h13l4-4H19V34z M16.9,26H38c0.87-1.16,1.5-2.52,1.8-4H12.9L16.9,26z M6.67,14c0.62,1.43,1.41,2.77,2.33,4h30.8
					c-0.3-1.48-0.93-2.84-1.8-4H6.67z"/>
			</defs>
			<clipPath id="XMLID_2_">
				<use xlink:href="#XMLID_695_"  overflow="visible"/>
			</clipPath>
			<path id="XMLID_721_" clip-path="url(#XMLID_2_)" fill="#BDBDBD" d="M19,34h13l4-4H19V34z M19.01,42h5.49
				c0-1.47,0.43-2.84,1.16-4H17C17,39.64,17.79,41.09,19.01,42z M42,6H5v4h33L42,6z M6.67,14c0.62,1.43,1.41,2.77,2.33,4h30.8
				c-0.3-1.48-0.93-2.84-1.8-4H6.67z M16.9,26H38c0.87-1.16,1.5-2.52,1.8-4H12.9L16.9,26z"/>
			<g id="XMLID_715_" opacity="0.2" clip-path="url(#XMLID_2_)">
				<polygon id="XMLID_720_" fill="#FFFFFF" points="19,30.25 35.51,30.25 36,30 19,30 				"/>
				<polygon id="XMLID_719_" fill="#FFFFFF" points="39.68,22.25 13.4,22.25 12.9,22 39.8,22 				"/>
				<polygon id="XMLID_718_" fill="#FFFFFF" points="17,38 17.03,38.25 25.37,38.25 25.66,38 				"/>
				<path id="XMLID_717_" fill="#FFFFFF" d="M6.67,14H38c0.87,1.16,1.5,2.52,1.8,4l-0.12-0.25c-0.33-1.29-0.9-2.47-1.68-3.5H6.9
					L6.67,14z"/>
				<polygon id="XMLID_716_" fill="#FFFFFF" points="5,6 5,6.25 41.5,6.25 42,6 				"/>
			</g>
			<path id="XMLID_701_" clip-path="url(#XMLID_2_)" fill="#212121" fill-opacity="0.1" d="M24.5,41.75h-5.49
				c-1.09-0.82-1.84-2.07-1.98-3.5L17,38c0,1.64,0.79,3.09,2.01,4h5.49c0-1.47,0.43-2.84,1.16-4l-0.28,0.25
				C24.82,39.3,24.5,40.48,24.5,41.75z M42,6l-0.5,0.25L38,9.75H5V10h33L42,6z M32,33.75H19V34h13l4-4l-0.51,0.26L32,33.75z
				 M39.68,22.25c-0.33,1.28-0.91,2.47-1.68,3.5H16.9l-3.5-3.5L12.9,22l4,4H38c0.87-1.16,1.5-2.52,1.8-4L39.68,22.25z M6.67,14
				c0.62,1.43,1.41,2.77,2.33,4h30.8l-0.12-0.25H9c-0.82-1.09-1.52-2.26-2.1-3.5L6.67,14z"/>
		</g>
		<radialGradient id="XMLID_3_" cx="4.894" cy="5.907" r="38.8348" gradientUnits="userSpaceOnUse">
			<stop  offset="0" style="stop-color:#FFFFFF;stop-opacity:0.1"/>
			<stop  offset="1" style="stop-color:#FFFFFF;stop-opacity:0"/>
		</radialGradient>
		<path id="XMLID_688_" fill="url(#XMLID_3_)" d="M19.01,42h5.49c0-1.47,0.43-2.84,1.16-4H17C17,39.64,17.79,41.09,19.01,42z M42,6
			H5v4h33L42,6z M19,34h13l4-4H19V34z M16.9,26H38c0.87-1.16,1.5-2.52,1.8-4H12.9L16.9,26z M6.67,14c0.62,1.43,1.41,2.77,2.33,4
			h30.8c-0.3-1.48-0.93-2.84-1.8-4H6.67z"/>
	</g>
</g>
</svg>
