<?xml version="1.0" encoding="utf-8"?>
<!-- Generator: Adobe Illustrator 19.0.0, SVG Export Plug-In . SVG Version: 6.00 Build 0)  -->
<svg version="1.1" id="Layer_1" xmlns="http://www.w3.org/2000/svg" xmlns:xlink="http://www.w3.org/1999/xlink" x="0px" y="0px"
	 width="48px" height="48px" viewBox="0 0 48 48" enable-background="new 0 0 48 48" xml:space="preserve">
<g id="XMLID_629_">
	<rect id="XMLID_685_" fill="none" width="48" height="48"/>
	<g id="XMLID_630_">
		<g id="XMLID_638_">
			<defs>
				<path id="XMLID_639_" d="M24,18c-3.31,0-6,2.69-6,6c0,3.31,2.69,6,6,6s6-2.69,6-6C30,20.69,27.31,18,24,18z M24,26
					c-1.1,0-2-0.9-2-2s0.9-2,2-2s2,0.9,2,2S25.1,26,24,26z M33.9,14.1C33.9,14.1,33.9,14.1,33.9,14.1C31.37,11.57,27.87,10,24,10
					c-5.76,0-10.71,3.49-12.86,8.46c-0.33-4.35,0.74-8.79,3.24-12.56l-2.86-2.86c-6.66,9.35-5.83,22.4,2.53,30.81
					C16.59,36.41,20.11,38,24,38c5.76,0,10.71-3.49,12.86-8.46c0.33,4.35-0.74,8.79-3.24,12.56l2.86,2.86
					C43.15,35.59,42.31,22.51,33.9,14.1z M24,34c-5.52,0-10-4.48-10-10s4.48-10,10-10c2.76,0,5.26,1.12,7.07,2.93
					c0.01,0.01,0.02,0.02,0.02,0.03c1.79,1.81,2.9,4.3,2.9,7.04C34,29.52,29.52,34,24,34z"/>
			</defs>
			<clipPath id="XMLID_2_">
				<use xlink:href="#XMLID_639_"  overflow="visible"/>
			</clipPath>
			<path id="XMLID_678_" clip-path="url(#XMLID_2_)" fill="#BDBDBD" d="M24,18c-3.31,0-6,2.69-6,6c0,3.31,2.69,6,6,6s6-2.69,6-6
				C30,20.69,27.31,18,24,18z M24,26c-1.1,0-2-0.9-2-2s0.9-2,2-2s2,0.9,2,2S25.1,26,24,26z M33.9,14.1
				C33.9,14.1,33.9,14.1,33.9,14.1C31.37,11.57,27.87,10,24,10c-5.76,0-10.71,3.49-12.86,8.46c-0.33-4.35,0.74-8.79,3.24-12.56
				l-2.86-2.86c-6.66,9.35-5.83,22.4,2.53,30.81C16.59,36.41,20.11,38,24,38c5.76,0,10.71-3.49,12.86-8.46
				c0.33,4.35-0.74,8.79-3.24,12.56l2.86,2.86C43.15,35.59,42.31,22.51,33.9,14.1z M24,34c-5.52,0-10-4.48-10-10s4.48-10,10-10
				c2.76,0,5.26,1.12,7.07,2.93c0.01,0.01,0.02,0.02,0.02,0.03c1.79,1.81,2.9,4.3,2.9,7.04C34,29.52,29.52,34,24,34z"/>
			<path id="XMLID_662_" clip-path="url(#XMLID_2_)" fill="#FFFFFF" fill-opacity="0.2" d="M30,24.12c0-0.04,0-0.08,0-0.12
				c0-3.31-2.69-6-6-6s-6,2.69-6,6c0,0.04,0,0.08,0,0.12c0.07-3.26,2.73-5.88,6-5.88S29.93,20.87,30,24.12z M24,10.25
				c3.87,0,7.37,1.57,9.9,4.1c0,0,0,0,0,0c4.68,4.68,7.02,10.82,7.01,16.96c0.07-6.22-2.26-12.46-7.01-17.21c0,0,0,0,0,0
				C31.37,11.57,27.87,10,24,10c-5.76,0-10.71,3.49-12.86,8.46v0.25C13.29,13.74,18.24,10.25,24,10.25z M33.81,42.04
				c2.08-3.28,3.11-7.03,3.1-10.78c-0.04,3.78-1.13,7.56-3.3,10.83L33.81,42.04z M14.38,5.9l-2.86-2.86
				C8.58,7.18,7.1,12.05,7.09,16.92c0.06-4.78,1.54-9.55,4.44-13.63l2.66,2.66L14.38,5.9z M34,24.12C33.93,29.59,29.48,34,24,34
				c-5.48,0-9.93-4.41-10-9.88c0,0.04,0,0.08,0,0.12c0,5.52,4.48,10,10,10s10-4.48,10-10C34,24.21,34,24.17,34,24.12z M24,26
				c-1.06,0-1.93-0.83-1.99-1.88c0,0.04-0.01,0.08-0.01,0.12c0,1.1,0.9,2,2,2s2-0.9,2-2c0-0.04,0-0.08-0.01-0.12
				C25.93,25.17,25.06,26,24,26z"/>
			<path id="XMLID_646_" clip-path="url(#XMLID_2_)" fill="#212121" fill-opacity="0.1" d="M18.01,23.88c0,0.04,0,0.08,0,0.12
				c0,3.31,2.69,6,6,6s6-2.69,6-6c0-0.04,0-0.08,0-0.12c-0.07,3.26-2.73,5.88-6,5.88S18.07,27.13,18.01,23.88z M24,37.75
				c-3.87,0-7.37-1.57-9.9-4.1c0,0,0,0,0,0c-4.68-4.68-7.02-10.82-7.01-16.96C7.02,22.91,9.35,29.15,14.1,33.9c0,0,0,0,0,0
				c2.53,2.53,6.03,4.1,9.9,4.1c5.76,0,10.71-3.49,12.86-8.46v-0.25C34.71,34.26,29.77,37.75,24,37.75z M14.19,5.96
				c-2.08,3.28-3.11,7.03-3.1,10.78c0.04-3.78,1.13-7.56,3.3-10.83L14.19,5.96z M33.62,42.1l2.86,2.86
				c2.95-4.14,4.43-9.01,4.44-13.88c-0.06,4.78-1.54,9.55-4.44,13.63l-2.67-2.67L33.62,42.1z M14.01,23.88
				C14.07,18.41,18.52,14,24,14c5.48,0,9.93,4.41,10,9.88c0-0.04,0-0.08,0-0.12c0-5.52-4.48-10-10-10s-10,4.48-10,10
				C14,23.79,14.01,23.83,14.01,23.88z M24,22c1.06,0,1.93,0.83,1.99,1.88c0-0.04,0.01-0.08,0.01-0.12c0-1.1-0.9-2-2-2s-2,0.9-2,2
				c0,0.04,0,0.08,0.01,0.12C22.07,22.83,22.94,22,24,22z"/>
		</g>
		<radialGradient id="XMLID_3_" cx="11.6635" cy="3.185" r="38.1641" gradientUnits="userSpaceOnUse">
			<stop  offset="0" style="stop-color:#FFFFFF;stop-opacity:0.1"/>
			<stop  offset="1" style="stop-color:#FFFFFF;stop-opacity:0"/>
		</radialGradient>
		<path id="XMLID_631_" fill="url(#XMLID_3_)" d="M24,18c-3.31,0-6,2.69-6,6c0,3.31,2.69,6,6,6s6-2.69,6-6C30,20.69,27.31,18,24,18z
			 M24,26c-1.1,0-2-0.9-2-2s0.9-2,2-2s2,0.9,2,2S25.1,26,24,26z M33.9,14.1C33.9,14.1,33.9,14.1,33.9,14.1
			C31.37,11.57,27.87,10,24,10c-5.76,0-10.71,3.49-12.86,8.46c-0.33-4.35,0.74-8.79,3.24-12.56l-2.86-2.86
			c-6.66,9.35-5.83,22.4,2.53,30.81C16.59,36.41,20.11,38,24,38c5.76,0,10.71-3.49,12.86-8.46c0.33,4.35-0.74,8.79-3.24,12.56
			l2.86,2.86C43.15,35.59,42.31,22.51,33.9,14.1z M24,34c-5.52,0-10-4.48-10-10s4.48-10,10-10c2.76,0,5.26,1.12,7.07,2.93
			c0.01,0.01,0.02,0.02,0.02,0.03c1.79,1.81,2.9,4.3,2.9,7.04C34,29.52,29.52,34,24,34z"/>
	</g>
</g>
</svg>
