<?xml version="1.0" encoding="utf-8"?>
<!-- Generator: Adobe Illustrator 19.0.0, SVG Export Plug-In . SVG Version: 6.00 Build 0)  -->
<svg version="1.1" id="Layer_1" xmlns="http://www.w3.org/2000/svg" xmlns:xlink="http://www.w3.org/1999/xlink" x="0px" y="0px"
	 width="96px" height="96px" viewBox="0 0 48 48" enable-background="new 0 0 48 48" xml:space="preserve">
<g id="XMLID_728_">
	<rect id="XMLID_809_" fill="none" width="48" height="48"/>
	<g id="XMLID_729_">
		<g id="XMLID_734_">
			<defs>
				<path id="XMLID_735_" d="M31.3,20.87L35,18.74V23h2v-4.26l3.69,2.13l1-1.74L38,17l3.69-2.13l-1-1.74L37,15.27V11h-2v4.26
					l-3.69-2.13l-1,1.74L34,17l-3.69,2.13L31.3,20.87z M28,17c0-3.31-2.69-6-6-6h-2v4h2c1.1,0,2,0.9,2,2s-0.9,2-2,2H5v4h17
					C25.31,23,28,20.31,28,17z M37,25H5v4h32c1.1,0,2,0.9,2,2s-0.9,2-2,2h-2v4h2c3.31,0,6-2.69,6-6S40.31,25,37,25z"/>
			</defs>
			<clipPath id="XMLID_2_">
				<use xlink:href="#XMLID_735_"  overflow="visible"/>
			</clipPath>
			<path id="XMLID_806_" clip-path="url(#XMLID_2_)" fill="#E1E1E1" d="M28,17c0-3.31-2.69-6-6-6h-2v4h2c1.1,0,2,0.9,2,2s-0.9,2-2,2
				H5v4h17C25.31,23,28,20.31,28,17z M37,25H5v4h32c1.1,0,2,0.9,2,2s-0.9,2-2,2h-2v4h2c3.31,0,6-2.69,6-6S40.31,25,37,25z"/>
			<g id="XMLID_776_" clip-path="url(#XMLID_2_)">
				<polygon id="XMLID_805_" fill="#BDBDBD" points="41.7,14.87 40.7,13.13 37,15.27 37,11 35,11 35,15.27 31.3,13.13 30.3,14.87 
					34,17 30.3,19.13 31.3,20.87 35,18.74 35,23 37,23 37,18.74 40.7,20.87 41.7,19.13 38,17 				"/>
				<path id="XMLID_791_" fill="#FFFFFF" fill-opacity="0.2" d="M37,11h-2v0.25h2V11z M30.3,19.13l0.22,0.12L34,17.25V17L30.3,19.13
					z M30.3,14.87l0.22-0.12l0.79-1.36L35,15.52v-0.25l-3.69-2.13L30.3,14.87z M38,17.25l3.48,2.01l0.22-0.12L38,17V17.25z
					 M41.48,14.74l0.22,0.12l-1-1.74L37,15.27v0.25l3.69-2.13L41.48,14.74z"/>
				<path id="XMLID_777_" fill="#212121" fill-opacity="0.1" d="M37,22.75h-2V23h2V22.75z M34,17v-0.25l-3.48-2.01l-0.22,0.12L34,17
					z M31.3,20.87L35,18.74v-0.25l-3.69,2.13l-0.79-1.36l-0.22-0.12L31.3,20.87z M38,17l3.69-2.13l-0.22-0.12L38,16.75V17z
					 M40.7,20.62L37,18.49v0.25l3.69,2.13l1-1.74l-0.22,0.12L40.7,20.62z"/>
			</g>
			<g id="XMLID_763_" clip-path="url(#XMLID_2_)">
				<path id="XMLID_770_" fill="#FFFFFF" fill-opacity="0.2" d="M28,31h-2v0.25h2V31z"/>
				<path id="XMLID_764_" fill="#212121" fill-opacity="0.1" d="M28,42.75h-2V43h2V42.75z"/>
			</g>
			<path id="XMLID_751_" clip-path="url(#XMLID_2_)" fill="#FFFFFF" fill-opacity="0.2" d="M24,17.25c0-0.04,0-0.08-0.01-0.12
				C23.93,18.17,23.06,19,22,19H5v0.25h17C23.1,19.25,24,18.35,24,17.25z M28,17.12c0-0.04,0-0.08,0-0.12c0-3.31-2.69-6-6-6h-2v0.25
				h2C25.27,11.25,27.93,13.87,28,17.12z M37,33h-2v0.25h2c1.1,0,2-0.9,2-2c0-0.04,0-0.08-0.01-0.12C38.93,32.17,38.06,33,37,33z
				 M37,25H5v0.25h32c3.27,0,5.93,2.62,6,5.88c0-0.04,0-0.08,0-0.12C43,27.69,40.31,25,37,25z"/>
			<path id="XMLID_739_" clip-path="url(#XMLID_2_)" fill="#212121" fill-opacity="0.1" d="M28,17c0-0.04,0-0.08,0-0.12
				c-0.07,3.26-2.72,5.88-6,5.88H5V23h17C25.31,23,28,20.31,28,17z M23.99,16.88c0-0.04,0.01-0.08,0.01-0.12c0-1.1-0.9-2-2-2h-2V15
				h2C23.06,15,23.93,15.83,23.99,16.88z M38.99,30.88c0-0.04,0.01-0.08,0.01-0.12c0-1.1-0.9-2-2-2H5V29h32
				C38.06,29,38.93,29.83,38.99,30.88z M43,30.88c-0.07,3.26-2.72,5.88-6,5.88h-2V37h2c3.31,0,6-2.69,6-6
				C43,30.96,43,30.92,43,30.88z"/>
		</g>
		<radialGradient id="XMLID_3_" cx="5.0136" cy="17.439" r="38.2169" gradientUnits="userSpaceOnUse">
			<stop  offset="0" style="stop-color:#FFFFFF;stop-opacity:0.1"/>
			<stop  offset="1" style="stop-color:#FFFFFF;stop-opacity:0"/>
		</radialGradient>
		<path id="XMLID_730_" fill="url(#XMLID_3_)" d="M31.3,20.87L35,18.74V23h2v-4.26l3.69,2.13l1-1.74L38,17l3.69-2.13l-1-1.74
			L37,15.27V11h-2v4.26l-3.69-2.13l-1,1.74L34,17l-3.69,2.13L31.3,20.87z M28,17c0-3.31-2.69-6-6-6h-2v4h2c1.1,0,2,0.9,2,2
			s-0.9,2-2,2H5v4h17C25.31,23,28,20.31,28,17z M37,25H5v4h32c1.1,0,2,0.9,2,2s-0.9,2-2,2h-2v4h2c3.31,0,6-2.69,6-6S40.31,25,37,25z
			"/>
	</g>
</g>
</svg>
