<?xml version="1.0" encoding="utf-8"?>
<!-- Generator: Adobe Illustrator 19.0.0, SVG Export Plug-In . SVG Version: 6.00 Build 0)  -->
<svg version="1.1" id="Layer_1" xmlns="http://www.w3.org/2000/svg" xmlns:xlink="http://www.w3.org/1999/xlink" x="0px" y="0px"
	 width="48px" height="48px" viewBox="0 0 48 48" enable-background="new 0 0 48 48" xml:space="preserve">
<g id="XMLID_922_">
	<rect id="XMLID_969_" fill="none" width="48" height="48"/>
	<g id="XMLID_923_">
		<g id="XMLID_928_">
			<defs>
				<path id="XMLID_929_" d="M32,14c0-3.31-2.69-6-6-6h-2v4h2c1.1,0,2,0.9,2,2s-0.9,2-2,2H5v4h21C29.31,20,32,17.31,32,14z M37,22H5
					v4h32c1.1,0,2,0.9,2,2s-0.9,2-2,2h-2v4h2c3.31,0,6-2.69,6-6S40.31,22,37,22z M18,28H5v4h13c1.1,0,2,0.9,2,2s-0.9,2-2,2h-2v4h2
					c3.31,0,6-2.69,6-6S21.31,28,18,28z"/>
			</defs>
			<clipPath id="XMLID_2_">
				<use xlink:href="#XMLID_929_"  overflow="visible"/>
			</clipPath>
			<path id="XMLID_965_" clip-path="url(#XMLID_2_)" fill="#BDBDBD" d="M32,14c0-3.31-2.69-6-6-6h-2v4h2c1.1,0,2,0.9,2,2s-0.9,2-2,2
				H5v4h21C29.31,20,32,17.31,32,14z M18,28H5v4h13c1.1,0,2,0.9,2,2s-0.9,2-2,2h-2v4h2c3.31,0,6-2.69,6-6S21.31,28,18,28z M37,22H5
				v4h32c1.1,0,2,0.9,2,2s-0.9,2-2,2h-2v4h2c3.31,0,6-2.69,6-6S40.31,22,37,22z"/>
			<path id="XMLID_949_" clip-path="url(#XMLID_2_)" fill="#FFFFFF" fill-opacity="0.2" d="M28,14.25c0-0.04,0-0.08-0.01-0.12
				C27.93,15.17,27.06,16,26,16H5v0.25h21C27.1,16.25,28,15.35,28,14.25z M32,14.12c0-0.04,0-0.08,0-0.12c0-3.31-2.69-6-6-6h-2v0.25
				h2C29.27,8.25,31.93,10.87,32,14.12z M18,36h-2v0.25h2c1.1,0,2-0.9,2-2c0-0.04,0-0.08-0.01-0.12C19.93,35.17,19.06,36,18,36z
				 M37,30h-2v0.25h2c1.1,0,2-0.9,2-2c0-0.04,0-0.08-0.01-0.12C38.93,29.17,38.06,30,37,30z M37,22H5v0.25h32
				c3.27,0,5.93,2.62,6,5.88c0-0.04,0-0.08,0-0.12C43,24.69,40.31,22,37,22z M18,28H5v0.25h13c3.27,0,5.93,2.62,6,5.88
				c0-0.04,0-0.08,0-0.12C24,30.69,21.31,28,18,28z"/>
			<path id="XMLID_933_" clip-path="url(#XMLID_2_)" fill="#212121" fill-opacity="0.1" d="M32,14c0-0.04,0-0.08,0-0.12
				c-0.07,3.26-2.72,5.88-6,5.88H5V20h21C29.31,20,32,17.31,32,14z M27.99,13.88c0-0.04,0.01-0.08,0.01-0.12c0-1.1-0.9-2-2-2h-2V12
				h2C27.06,12,27.93,12.83,27.99,13.88z M38.99,27.88c0-0.04,0.01-0.08,0.01-0.12c0-1.1-0.9-2-2-2H5V26h32
				C38.06,26,38.93,26.83,38.99,27.88z M43,27.88c-0.07,3.26-2.72,5.88-6,5.88h-2V34h2c3.31,0,6-2.69,6-6
				C43,27.96,43,27.92,43,27.88z M18,39.75h-2V40h2c3.31,0,6-2.69,6-6c0-0.04,0-0.08,0-0.12C23.93,37.13,21.27,39.75,18,39.75z
				 M19.99,33.88c0-0.04,0.01-0.08,0.01-0.12c0-1.1-0.9-2-2-2H5V32h13C19.06,32,19.93,32.83,19.99,33.88z"/>
		</g>
		<radialGradient id="XMLID_3_" cx="5.0136" cy="15.9249" r="40.2258" gradientUnits="userSpaceOnUse">
			<stop  offset="0" style="stop-color:#FFFFFF;stop-opacity:0.1"/>
			<stop  offset="1" style="stop-color:#FFFFFF;stop-opacity:0"/>
		</radialGradient>
		<path id="XMLID_924_" fill="url(#XMLID_3_)" d="M32,14c0-3.31-2.69-6-6-6h-2v4h2c1.1,0,2,0.9,2,2s-0.9,2-2,2H5v4h21
			C29.31,20,32,17.31,32,14z M37,22H5v4h32c1.1,0,2,0.9,2,2s-0.9,2-2,2h-2v4h2c3.31,0,6-2.69,6-6S40.31,22,37,22z M18,28H5v4h13
			c1.1,0,2,0.9,2,2s-0.9,2-2,2h-2v4h2c3.31,0,6-2.69,6-6S21.31,28,18,28z"/>
	</g>
</g>
</svg>
