<?xml version="1.0" encoding="utf-8"?>
<!-- Generator: Adobe Illustrator 19.0.0, SVG Export Plug-In . SVG Version: 6.00 Build 0)  -->
<svg version="1.1" id="Layer_1" xmlns="http://www.w3.org/2000/svg" xmlns:xlink="http://www.w3.org/1999/xlink" x="0px" y="0px"
	 width="96px" height="96px" viewBox="0 0 48 48" enable-background="new 0 0 48 48" xml:space="preserve">
<g id="XMLID_810_">
	<rect id="XMLID_921_" fill="none" width="48" height="48"/>
	<g id="XMLID_811_">
		<g id="XMLID_818_">
			<defs>
				<path id="XMLID_819_" d="M31.3,17.87L35,15.74V20h2v-4.26l3.69,2.13l1-1.74L38,14l3.69-2.13l-1-1.74L37,12.27V8h-2v4.26
					l-3.69-2.13l-1,1.74L34,14l-3.69,2.13L31.3,17.87z M28,14c0-3.31-2.69-6-6-6h-2v4h2c1.1,0,2,0.9,2,2s-0.9,2-2,2H5v4h17
					C25.31,20,28,17.31,28,14z M37,22H5v4h32c1.1,0,2,0.9,2,2s-0.9,2-2,2h-2v4h2c3.31,0,6-2.69,6-6S40.31,22,37,22z M13,28H5v4h8
					c1.1,0,2,0.9,2,2s-0.9,2-2,2h-2v4h2c3.31,0,6-2.69,6-6S16.31,28,13,28z M31.7,30.13L28,32.27V28h-2v4.26l-3.69-2.13l-1,1.74
					L25,34l-3.69,2.13l1,1.74L26,35.74V40h2v-4.26l3.69,2.13l1-1.74L29,34l3.69-2.13L31.7,30.13z"/>
			</defs>
			<clipPath id="XMLID_2_">
				<use xlink:href="#XMLID_819_"  overflow="visible"/>
			</clipPath>
			<path id="XMLID_917_" clip-path="url(#XMLID_2_)" fill="#E1E1E1" d="M28,14c0-3.31-2.69-6-6-6h-2v4h2c1.1,0,2,0.9,2,2s-0.9,2-2,2
				H5v4h17C25.31,20,28,17.31,28,14z M13,28H5v4h8c1.1,0,2,0.9,2,2s-0.9,2-2,2h-2v4h2c3.31,0,6-2.69,6-6S16.31,28,13,28z M37,22H5v4
				h32c1.1,0,2,0.9,2,2s-0.9,2-2,2h-2v4h2c3.31,0,6-2.69,6-6S40.31,22,37,22z"/>
			<g id="XMLID_887_" clip-path="url(#XMLID_2_)">
				<polygon id="XMLID_916_" fill="#BDBDBD" points="41.7,11.87 40.7,10.13 37,12.27 37,8 35,8 35,12.27 31.3,10.13 30.3,11.87 
					34,14 30.3,16.13 31.3,17.87 35,15.74 35,20 37,20 37,15.74 40.7,17.87 41.7,16.13 38,14 				"/>
				<path id="XMLID_902_" fill="#FFFFFF" fill-opacity="0.2" d="M37,8h-2v0.25h2V8z M30.3,16.13l0.22,0.12L34,14.25V14L30.3,16.13z
					 M30.3,11.87l0.22-0.12l0.79-1.36L35,12.52v-0.25l-3.69-2.13L30.3,11.87z M38,14.25l3.48,2.01l0.22-0.12L38,14V14.25z
					 M41.48,11.74l0.22,0.12l-1-1.74L37,12.27v0.25l3.69-2.13L41.48,11.74z"/>
				<path id="XMLID_888_" fill="#212121" fill-opacity="0.1" d="M37,19.75h-2V20h2V19.75z M34,14v-0.25l-3.48-2.01l-0.22,0.12L34,14
					z M31.3,17.87L35,15.74v-0.25l-3.69,2.13l-0.79-1.36l-0.22-0.12L31.3,17.87z M38,14l3.69-2.13l-0.22-0.12L38,13.75V14z
					 M40.7,17.62L37,15.49v0.25l3.69,2.13l1-1.74l-0.22,0.12L40.7,17.62z"/>
			</g>
			<g id="XMLID_857_" clip-path="url(#XMLID_2_)">
				<polygon id="XMLID_886_" fill="#BDBDBD" points="32.7,31.87 31.7,30.13 28,32.27 28,28 26,28 26,32.27 22.3,30.13 21.3,31.87 
					25,34 21.3,36.13 22.3,37.87 26,35.74 26,40 28,40 28,35.74 31.7,37.87 32.7,36.13 29,34 				"/>
				<path id="XMLID_872_" fill="#FFFFFF" fill-opacity="0.2" d="M28,28h-2v0.25h2V28z M21.3,36.13l0.22,0.12L25,34.25V34L21.3,36.13
					z M21.3,31.87l0.22-0.12l0.79-1.36L26,32.52v-0.25l-3.69-2.13L21.3,31.87z M29,34.25l3.48,2.01l0.22-0.12L29,34V34.25z
					 M32.48,31.74l0.22,0.12l-1-1.74L28,32.27v0.25l3.69-2.13L32.48,31.74z"/>
				<path id="XMLID_858_" fill="#212121" fill-opacity="0.1" d="M28,39.75h-2V40h2V39.75z M25,34v-0.25l-3.48-2.01l-0.22,0.12L25,34
					z M22.3,37.87L26,35.74v-0.25l-3.69,2.13l-0.79-1.36l-0.22-0.12L22.3,37.87z M29,34l3.69-2.13l-0.22-0.12L29,33.75V34z
					 M31.7,37.62L28,35.49v0.25l3.69,2.13l1-1.74l-0.22,0.12L31.7,37.62z"/>
			</g>
			<path id="XMLID_841_" clip-path="url(#XMLID_2_)" fill="#FFFFFF" fill-opacity="0.2" d="M24,14.25c0-0.04,0-0.08-0.01-0.12
				C23.93,15.17,23.06,16,22,16H5v0.25h17C23.1,16.25,24,15.35,24,14.25z M28,14.12c0-0.04,0-0.08,0-0.12c0-3.31-2.69-6-6-6h-2v0.25
				h2C25.27,8.25,27.93,10.87,28,14.12z M13,36h-2v0.25h2c1.1,0,2-0.9,2-2c0-0.04,0-0.08-0.01-0.12C14.93,35.17,14.06,36,13,36z
				 M37,30h-2v0.25h2c1.1,0,2-0.9,2-2c0-0.04,0-0.08-0.01-0.12C38.93,29.17,38.06,30,37,30z M37,22H5v0.25h32
				c3.27,0,5.93,2.62,6,5.88c0-0.04,0-0.08,0-0.12C43,24.69,40.31,22,37,22z M13,28H5v0.25h8c3.27,0,5.93,2.62,6,5.88
				c0-0.04,0-0.08,0-0.12C19,30.69,16.31,28,13,28z"/>
			<path id="XMLID_825_" clip-path="url(#XMLID_2_)" fill="#212121" fill-opacity="0.1" d="M28,14c0-0.04,0-0.08,0-0.12
				c-0.07,3.26-2.72,5.88-6,5.88H5V20h17C25.31,20,28,17.31,28,14z M23.99,13.88c0-0.04,0.01-0.08,0.01-0.12c0-1.1-0.9-2-2-2h-2V12
				h2C23.06,12,23.93,12.83,23.99,13.88z M38.99,27.88c0-0.04,0.01-0.08,0.01-0.12c0-1.1-0.9-2-2-2H5V26h32
				C38.06,26,38.93,26.83,38.99,27.88z M43,27.88c-0.07,3.26-2.72,5.88-6,5.88h-2V34h2c3.31,0,6-2.69,6-6
				C43,27.96,43,27.92,43,27.88z M13,39.75h-2V40h2c3.31,0,6-2.69,6-6c0-0.04,0-0.08,0-0.12C18.93,37.13,16.27,39.75,13,39.75z
				 M14.99,33.88c0-0.04,0.01-0.08,0.01-0.12c0-1.1-0.9-2-2-2H5V32h8C14.06,32,14.93,32.83,14.99,33.88z"/>
		</g>
		<radialGradient id="XMLID_3_" cx="5.0136" cy="15.9254" r="40.2265" gradientUnits="userSpaceOnUse">
			<stop  offset="0" style="stop-color:#FFFFFF;stop-opacity:0.1"/>
			<stop  offset="1" style="stop-color:#FFFFFF;stop-opacity:0"/>
		</radialGradient>
		<path id="XMLID_812_" fill="url(#XMLID_3_)" d="M31.3,17.87L35,15.74V20h2v-4.26l3.69,2.13l1-1.74L38,14l3.69-2.13l-1-1.74
			L37,12.27V8h-2v4.26l-3.69-2.13l-1,1.74L34,14l-3.69,2.13L31.3,17.87z M28,14c0-3.31-2.69-6-6-6h-2v4h2c1.1,0,2,0.9,2,2
			s-0.9,2-2,2H5v4h17C25.31,20,28,17.31,28,14z M37,22H5v4h32c1.1,0,2,0.9,2,2s-0.9,2-2,2h-2v4h2c3.31,0,6-2.69,6-6S40.31,22,37,22z
			 M13,28H5v4h8c1.1,0,2,0.9,2,2s-0.9,2-2,2h-2v4h2c3.31,0,6-2.69,6-6S16.31,28,13,28z M31.7,30.13L28,32.27V28h-2v4.26l-3.69-2.13
			l-1,1.74L25,34l-3.69,2.13l1,1.74L26,35.74V40h2v-4.26l3.69,2.13l1-1.74L29,34l3.69-2.13L31.7,30.13z"/>
	</g>
</g>
</svg>
