<?xml version="1.0" encoding="utf-8"?>
<!-- Generator: Adobe Illustrator 19.0.0, SVG Export Plug-In . SVG Version: 6.00 Build 0)  -->
<svg version="1.1" id="Layer_1" xmlns="http://www.w3.org/2000/svg" xmlns:xlink="http://www.w3.org/1999/xlink" x="0px" y="0px"
	 width="96px" height="96px" viewBox="0 0 48 48" enable-background="new 0 0 48 48" xml:space="preserve">
<g id="XMLID_2491_">
	<rect id="XMLID_2516_" fill="none" width="48" height="48"/>
	<g id="XMLID_2492_">
		<g id="XMLID_2495_">
			<defs>
				<path id="XMLID_2496_" d="M20,15c0-4,1.25-7.75,3.25-11C12.5,4.5,4,13.25,4,24c0,11,9,20,20,20c7,0,13-3.5,16.75-9
					C29,35,20,26.25,20,15z"/>
			</defs>
			<clipPath id="XMLID_2_">
				<use xlink:href="#XMLID_2496_"  overflow="visible"/>
			</clipPath>
			<path id="XMLID_2514_" clip-path="url(#XMLID_2_)" fill="#C6DAFC" d="M20,15c0-4,1.25-7.75,3.25-11C12.5,4.5,4,13.25,4,24
				c0,11,9,20,20,20c7,0,13-3.5,16.75-9C29,35,20,26.25,20,15z"/>
			<path id="XMLID_2506_" clip-path="url(#XMLID_2_)" fill="#1A237E" fill-opacity="0.1" d="M23.25,4l-0.31,0.27
				C21.12,7.4,20,10.96,20,14.75c0,0.04,0,0.07,0,0.11C20.03,10.91,21.27,7.21,23.25,4z M40.4,35.25c-3.77,5.21-9.61,8.5-16.4,8.5
				c-10.96,0-19.93-8.93-20-19.88c0,0.04,0,0.08,0,0.13c0,11,9,20,20,20c7,0,13-3.5,16.75-9L40.4,35.25z"/>
			<path id="XMLID_2498_" clip-path="url(#XMLID_2_)" fill="#FFFFFF" fill-opacity="0.2" d="M20,15.11c0,0.05,0,0.09,0,0.14
				c0,11.14,8.82,19.82,20.4,19.99L40.75,35C29.04,35,20.06,26.31,20,15.11z M23.25,4C12.5,4.5,4,13.25,4,24c0,0.04,0,0.08,0,0.12
				c0.07-10.59,8.38-19.2,18.94-19.85L23.25,4z"/>
		</g>
		<radialGradient id="XMLID_3_" cx="9.8953" cy="9.9493" r="39.9321" gradientUnits="userSpaceOnUse">
			<stop  offset="0" style="stop-color:#FFFFFF;stop-opacity:0.1"/>
			<stop  offset="1" style="stop-color:#FFFFFF;stop-opacity:0"/>
		</radialGradient>
		<path id="XMLID_2493_" fill="url(#XMLID_3_)" d="M20,15c0-4,1.25-7.75,3.25-11C12.5,4.5,4,13.25,4,24c0,11,9,20,20,20
			c7,0,13-3.5,16.75-9C29,35,20,26.25,20,15z"/>
	</g>
</g>
</svg>
