<?xml version="1.0" encoding="utf-8"?>
<!-- Generator: Adobe Illustrator 19.0.0, SVG Export Plug-In . SVG Version: 6.00 Build 0)  -->
<svg version="1.1" id="Layer_1" xmlns="http://www.w3.org/2000/svg" xmlns:xlink="http://www.w3.org/1999/xlink" x="0px" y="0px"
	 width="96px" height="96px" viewBox="0 0 48 48" enable-background="new 0 0 48 48" xml:space="preserve">
<g id="XMLID_28_">
	<rect id="XMLID_628_" fill="none" width="48" height="48"/>
	<g id="XMLID_29_">
		<g id="XMLID_565_">
			<defs>
				<path id="XMLID_573_" d="M33.01,33c-2.45,0-3.96,0.76-5.29,1.44c-1.17,0.59-2.1,1.06-3.71,1.06s-2.54-0.47-3.71-1.06
					C18.97,33.76,17.46,33,15.01,33s-3.96,0.76-5.29,1.44c-1.17,0.59-2.1,1.06-3.71,1.06V39c2.45,0,3.96-0.76,5.29-1.44
					c1.17-0.59,2.1-1.06,3.71-1.06s2.54,0.47,3.71,1.06c1.33,0.67,2.84,1.44,5.29,1.44s3.96-0.76,5.29-1.44
					c1.17-0.59,2.1-1.06,3.71-1.06c1.61,0,2.54,0.47,3.71,1.06c1.33,0.67,2.84,1.44,5.29,1.44v-3.5c-1.61,0-2.54-0.47-3.71-1.06
					C36.97,33.76,35.46,33,33.01,33z M33.01,25c-2.45,0-3.96,0.76-5.29,1.44c-1.17,0.59-2.1,1.06-3.71,1.06s-2.54-0.47-3.71-1.06
					C18.97,25.76,17.46,25,15.01,25s-3.96,0.76-5.29,1.44c-1.17,0.59-2.1,1.06-3.71,1.06V31c2.45,0,3.96-0.76,5.29-1.44
					c1.17-0.59,2.1-1.06,3.71-1.06s2.54,0.47,3.71,1.06c1.33,0.67,2.84,1.44,5.29,1.44s3.96-0.76,5.29-1.44
					c1.17-0.59,2.1-1.06,3.71-1.06c1.61,0,2.54,0.47,3.71,1.06c1.33,0.67,2.84,1.44,5.29,1.44v-3.5c-1.61,0-2.54-0.47-3.71-1.06
					C36.97,25.76,35.46,25,33.01,25z M38.3,10.44C36.97,9.76,35.46,9,33.01,9s-3.96,0.76-5.29,1.44c-1.17,0.59-2.1,1.06-3.71,1.06
					s-2.54-0.47-3.71-1.06C18.97,9.76,17.46,9,15.01,9s-3.96,0.76-5.29,1.44c-1.17,0.59-2.1,1.06-3.71,1.06V15
					c2.45,0,3.96-0.76,5.29-1.44c1.17-0.59,2.1-1.06,3.71-1.06s2.54,0.47,3.71,1.06c1.33,0.67,2.84,1.44,5.29,1.44
					s3.96-0.76,5.29-1.44c1.17-0.59,2.1-1.06,3.71-1.06c1.61,0,2.54,0.47,3.71,1.06c1.33,0.67,2.84,1.44,5.29,1.44v-3.5
					C40.4,11.5,39.47,11.03,38.3,10.44z M33.01,17c-2.45,0-3.96,0.76-5.29,1.44c-1.17,0.59-2.1,1.06-3.71,1.06s-2.54-0.47-3.71-1.06
					C18.97,17.76,17.46,17,15.01,17s-3.96,0.76-5.29,1.44c-1.17,0.59-2.1,1.06-3.71,1.06V23c2.45,0,3.96-0.76,5.29-1.44
					c1.17-0.59,2.1-1.06,3.71-1.06s2.54,0.47,3.71,1.06c1.33,0.67,2.84,1.44,5.29,1.44s3.96-0.76,5.29-1.44
					c1.17-0.59,2.1-1.06,3.71-1.06c1.61,0,2.54,0.47,3.71,1.06c1.33,0.67,2.84,1.44,5.29,1.44v-3.5c-1.61,0-2.54-0.47-3.71-1.06
					C36.97,17.76,35.46,17,33.01,17z"/>
			</defs>
			<clipPath id="XMLID_2_">
				<use xlink:href="#XMLID_573_"  overflow="visible"/>
			</clipPath>
			<path id="XMLID_623_" clip-path="url(#XMLID_2_)" fill="#BDBDBD" d="M38.3,10.44C36.97,9.76,35.46,9,33.01,9
				s-3.96,0.76-5.29,1.44c-1.17,0.59-2.1,1.06-3.71,1.06s-2.54-0.47-3.71-1.06C18.97,9.76,17.46,9,15.01,9s-3.96,0.76-5.29,1.44
				c-1.17,0.59-2.1,1.06-3.71,1.06V15c2.45,0,3.96-0.76,5.29-1.44c1.17-0.59,2.1-1.06,3.71-1.06s2.54,0.47,3.71,1.06
				c1.33,0.67,2.84,1.44,5.29,1.44s3.96-0.76,5.29-1.44c1.17-0.59,2.1-1.06,3.71-1.06c1.61,0,2.54,0.47,3.71,1.06
				c1.33,0.67,2.84,1.44,5.29,1.44v-3.5C40.4,11.5,39.47,11.03,38.3,10.44z M33.01,33c-2.45,0-3.96,0.76-5.29,1.44
				c-1.17,0.59-2.1,1.06-3.71,1.06s-2.54-0.47-3.71-1.06C18.97,33.76,17.46,33,15.01,33s-3.96,0.76-5.29,1.44
				c-1.17,0.59-2.1,1.06-3.71,1.06V39c2.45,0,3.96-0.76,5.29-1.44c1.17-0.59,2.1-1.06,3.71-1.06s2.54,0.47,3.71,1.06
				c1.33,0.67,2.84,1.44,5.29,1.44s3.96-0.76,5.29-1.44c1.17-0.59,2.1-1.06,3.71-1.06c1.61,0,2.54,0.47,3.71,1.06
				c1.33,0.67,2.84,1.44,5.29,1.44v-3.5c-1.61,0-2.54-0.47-3.71-1.06C36.97,33.76,35.46,33,33.01,33z M33.01,25
				c-2.45,0-3.96,0.76-5.29,1.44c-1.17,0.59-2.1,1.06-3.71,1.06s-2.54-0.47-3.71-1.06C18.97,25.76,17.46,25,15.01,25
				s-3.96,0.76-5.29,1.44c-1.17,0.59-2.1,1.06-3.71,1.06V31c2.45,0,3.96-0.76,5.29-1.44c1.17-0.59,2.1-1.06,3.71-1.06
				s2.54,0.47,3.71,1.06c1.33,0.67,2.84,1.44,5.29,1.44s3.96-0.76,5.29-1.44c1.17-0.59,2.1-1.06,3.71-1.06
				c1.61,0,2.54,0.47,3.71,1.06c1.33,0.67,2.84,1.44,5.29,1.44v-3.5c-1.61,0-2.54-0.47-3.71-1.06C36.97,25.76,35.46,25,33.01,25z
				 M33.01,17c-2.45,0-3.96,0.76-5.29,1.44c-1.17,0.59-2.1,1.06-3.71,1.06s-2.54-0.47-3.71-1.06C18.97,17.76,17.46,17,15.01,17
				s-3.96,0.76-5.29,1.44c-1.17,0.59-2.1,1.06-3.71,1.06V23c2.45,0,3.96-0.76,5.29-1.44c1.17-0.59,2.1-1.06,3.71-1.06
				s2.54,0.47,3.71,1.06c1.33,0.67,2.84,1.44,5.29,1.44s3.96-0.76,5.29-1.44c1.17-0.59,2.1-1.06,3.71-1.06
				c1.61,0,2.54,0.47,3.71,1.06c1.33,0.67,2.84,1.44,5.29,1.44v-3.5c-1.61,0-2.54-0.47-3.71-1.06C36.97,17.76,35.46,17,33.01,17z"/>
			<path id="XMLID_611_" clip-path="url(#XMLID_2_)" fill="#FFFFFF" fill-opacity="0.2" d="M33.01,25c-2.45,0-3.96,0.76-5.29,1.44
				c-1.17,0.59-2.1,1.06-3.71,1.06s-2.54-0.47-3.71-1.06C18.97,25.76,17.46,25,15.01,25s-3.96,0.76-5.29,1.44
				c-1.17,0.59-2.1,1.06-3.71,1.06v0.25c1.61,0,2.54-0.47,3.71-1.06c1.33-0.67,2.84-1.44,5.29-1.44s3.96,0.76,5.29,1.44
				c1.17,0.59,2.1,1.06,3.71,1.06s2.54-0.47,3.71-1.06c1.33-0.67,2.84-1.44,5.29-1.44s3.96,0.76,5.29,1.44
				c1.17,0.59,2.1,1.06,3.71,1.06V27.5c-1.61,0-2.54-0.47-3.71-1.06C36.97,25.76,35.46,25,33.01,25z M33.01,33
				c-2.45,0-3.96,0.76-5.29,1.44c-1.17,0.59-2.1,1.06-3.71,1.06s-2.54-0.47-3.71-1.06C18.97,33.76,17.46,33,15.01,33
				s-3.96,0.76-5.29,1.44c-1.17,0.59-2.1,1.06-3.71,1.06v0.25c1.61,0,2.54-0.47,3.71-1.06c1.33-0.67,2.84-1.44,5.29-1.44
				s3.96,0.76,5.29,1.44c1.17,0.59,2.1,1.06,3.71,1.06s2.54-0.47,3.71-1.06c1.33-0.67,2.84-1.44,5.29-1.44s3.96,0.76,5.29,1.44
				c1.17,0.59,2.1,1.06,3.71,1.06V35.5c-1.61,0-2.54-0.47-3.71-1.06C36.97,33.76,35.46,33,33.01,33z M38.3,10.44
				C36.97,9.76,35.46,9,33.01,9s-3.96,0.76-5.29,1.44c-1.17,0.59-2.1,1.06-3.71,1.06s-2.54-0.47-3.71-1.06
				C18.97,9.76,17.46,9,15.01,9s-3.96,0.76-5.29,1.44c-1.17,0.59-2.1,1.06-3.71,1.06v0.25c1.61,0,2.54-0.47,3.71-1.06
				c1.33-0.67,2.84-1.44,5.29-1.44s3.96,0.76,5.29,1.44c1.17,0.59,2.1,1.06,3.71,1.06s2.54-0.47,3.71-1.06
				c1.33-0.67,2.84-1.44,5.29-1.44s3.96,0.76,5.29,1.44c1.17,0.59,2.1,1.06,3.71,1.06V11.5C40.4,11.5,39.47,11.03,38.3,10.44z
				 M33.01,17c-2.45,0-3.96,0.76-5.29,1.44c-1.17,0.59-2.1,1.06-3.71,1.06s-2.54-0.47-3.71-1.06C18.97,17.76,17.46,17,15.01,17
				s-3.96,0.76-5.29,1.44c-1.17,0.59-2.1,1.06-3.71,1.06v0.25c1.61,0,2.54-0.47,3.71-1.06c1.33-0.67,2.84-1.44,5.29-1.44
				s3.96,0.76,5.29,1.44c1.17,0.59,2.1,1.06,3.71,1.06s2.54-0.47,3.71-1.06c1.33-0.67,2.84-1.44,5.29-1.44s3.96,0.76,5.29,1.44
				c1.17,0.59,2.1,1.06,3.71,1.06V19.5c-1.61,0-2.54-0.47-3.71-1.06C36.97,17.76,35.46,17,33.01,17z"/>
			<path id="XMLID_594_" clip-path="url(#XMLID_2_)" fill="#212121" fill-opacity="0.1" d="M33.01,28.25
				c-1.61,0-2.54,0.47-3.71,1.06c-1.33,0.67-2.84,1.44-5.29,1.44s-3.96-0.76-5.29-1.44c-1.17-0.59-2.1-1.06-3.71-1.06
				s-2.54,0.47-3.71,1.06c-1.33,0.67-2.84,1.44-5.29,1.44V31c2.45,0,3.96-0.76,5.29-1.44c1.17-0.59,2.1-1.06,3.71-1.06
				s2.54,0.47,3.71,1.06c1.33,0.67,2.84,1.44,5.29,1.44s3.96-0.76,5.29-1.44c1.17-0.59,2.1-1.06,3.71-1.06
				c1.61,0,2.54,0.47,3.71,1.06c1.33,0.67,2.84,1.44,5.29,1.44v-0.25c-2.45,0-3.96-0.76-5.29-1.44
				C35.55,28.72,34.63,28.25,33.01,28.25z M33.01,36.25c-1.61,0-2.54,0.47-3.71,1.06c-1.33,0.67-2.84,1.44-5.29,1.44
				s-3.96-0.76-5.29-1.44c-1.17-0.59-2.1-1.06-3.71-1.06s-2.54,0.47-3.71,1.06c-1.33,0.67-2.84,1.44-5.29,1.44V39
				c2.45,0,3.96-0.76,5.29-1.44c1.17-0.59,2.1-1.06,3.71-1.06s2.54,0.47,3.71,1.06c1.33,0.67,2.84,1.44,5.29,1.44
				s3.96-0.76,5.29-1.44c1.17-0.59,2.1-1.06,3.71-1.06c1.61,0,2.54,0.47,3.71,1.06c1.33,0.67,2.84,1.44,5.29,1.44v-0.25
				c-2.45,0-3.96-0.76-5.29-1.44C35.55,36.72,34.63,36.25,33.01,36.25z M36.72,13.31c-1.17-0.59-2.1-1.06-3.71-1.06
				c-1.61,0-2.54,0.47-3.71,1.06c-1.33,0.67-2.84,1.44-5.29,1.44s-3.96-0.76-5.29-1.44c-1.17-0.59-2.1-1.06-3.71-1.06
				s-2.54,0.47-3.71,1.06c-1.33,0.67-2.84,1.44-5.29,1.44V15c2.45,0,3.96-0.76,5.29-1.44c1.17-0.59,2.1-1.06,3.71-1.06
				s2.54,0.47,3.71,1.06c1.33,0.67,2.84,1.44,5.29,1.44s3.96-0.76,5.29-1.44c1.17-0.59,2.1-1.06,3.71-1.06
				c1.61,0,2.54,0.47,3.71,1.06c1.33,0.67,2.84,1.44,5.29,1.44v-0.25C39.56,14.75,38.05,13.99,36.72,13.31z M33.01,20.25
				c-1.61,0-2.54,0.47-3.71,1.06c-1.33,0.67-2.84,1.44-5.29,1.44s-3.96-0.76-5.29-1.44c-1.17-0.59-2.1-1.06-3.71-1.06
				s-2.54,0.47-3.71,1.06c-1.33,0.67-2.84,1.44-5.29,1.44V23c2.45,0,3.96-0.76,5.29-1.44c1.17-0.59,2.1-1.06,3.71-1.06
				s2.54,0.47,3.71,1.06c1.33,0.67,2.84,1.44,5.29,1.44s3.96-0.76,5.29-1.44c1.17-0.59,2.1-1.06,3.71-1.06
				c1.61,0,2.54,0.47,3.71,1.06c1.33,0.67,2.84,1.44,5.29,1.44v-0.25c-2.45,0-3.96-0.76-5.29-1.44
				C35.55,20.72,34.63,20.25,33.01,20.25z"/>
		</g>
		<radialGradient id="XMLID_3_" cx="6.1564" cy="11.5964" r="44.9817" gradientUnits="userSpaceOnUse">
			<stop  offset="0" style="stop-color:#FFFFFF;stop-opacity:0.1"/>
			<stop  offset="1" style="stop-color:#FFFFFF;stop-opacity:0"/>
		</radialGradient>
		<path id="XMLID_30_" fill="url(#XMLID_3_)" d="M38.3,10.44C36.97,9.76,35.46,9,33.01,9s-3.96,0.76-5.29,1.44
			c-1.17,0.59-2.1,1.06-3.71,1.06s-2.54-0.47-3.71-1.06C18.97,9.76,17.46,9,15.01,9s-3.96,0.76-5.29,1.44
			c-1.17,0.59-2.1,1.06-3.71,1.06V15c2.45,0,3.96-0.76,5.29-1.44c1.17-0.59,2.1-1.06,3.71-1.06s2.54,0.47,3.71,1.06
			c1.33,0.67,2.84,1.44,5.29,1.44s3.96-0.76,5.29-1.44c1.17-0.59,2.1-1.06,3.71-1.06c1.61,0,2.54,0.47,3.71,1.06
			c1.33,0.67,2.84,1.44,5.29,1.44v-3.5C40.4,11.5,39.47,11.03,38.3,10.44z M33.01,33c-2.45,0-3.96,0.76-5.29,1.44
			c-1.17,0.59-2.1,1.06-3.71,1.06s-2.54-0.47-3.71-1.06C18.97,33.76,17.46,33,15.01,33s-3.96,0.76-5.29,1.44
			c-1.17,0.59-2.1,1.06-3.71,1.06V39c2.45,0,3.96-0.76,5.29-1.44c1.17-0.59,2.1-1.06,3.71-1.06s2.54,0.47,3.71,1.06
			c1.33,0.67,2.84,1.44,5.29,1.44s3.96-0.76,5.29-1.44c1.17-0.59,2.1-1.06,3.71-1.06c1.61,0,2.54,0.47,3.71,1.06
			c1.33,0.67,2.84,1.44,5.29,1.44v-3.5c-1.61,0-2.54-0.47-3.71-1.06C36.97,33.76,35.46,33,33.01,33z M33.01,25
			c-2.45,0-3.96,0.76-5.29,1.44c-1.17,0.59-2.1,1.06-3.71,1.06s-2.54-0.47-3.71-1.06C18.97,25.76,17.46,25,15.01,25
			s-3.96,0.76-5.29,1.44c-1.17,0.59-2.1,1.06-3.71,1.06V31c2.45,0,3.96-0.76,5.29-1.44c1.17-0.59,2.1-1.06,3.71-1.06
			s2.54,0.47,3.71,1.06c1.33,0.67,2.84,1.44,5.29,1.44s3.96-0.76,5.29-1.44c1.17-0.59,2.1-1.06,3.71-1.06
			c1.61,0,2.54,0.47,3.71,1.06c1.33,0.67,2.84,1.44,5.29,1.44v-3.5c-1.61,0-2.54-0.47-3.71-1.06C36.97,25.76,35.46,25,33.01,25z
			 M33.01,17c-2.45,0-3.96,0.76-5.29,1.44c-1.17,0.59-2.1,1.06-3.71,1.06s-2.54-0.47-3.71-1.06C18.97,17.76,17.46,17,15.01,17
			s-3.96,0.76-5.29,1.44c-1.17,0.59-2.1,1.06-3.71,1.06V23c2.45,0,3.96-0.76,5.29-1.44c1.17-0.59,2.1-1.06,3.71-1.06
			s2.54,0.47,3.71,1.06c1.33,0.67,2.84,1.44,5.29,1.44s3.96-0.76,5.29-1.44c1.17-0.59,2.1-1.06,3.71-1.06
			c1.61,0,2.54,0.47,3.71,1.06c1.33,0.67,2.84,1.44,5.29,1.44v-3.5c-1.61,0-2.54-0.47-3.71-1.06C36.97,17.76,35.46,17,33.01,17z"/>
	</g>
</g>
</svg>
