<?xml version="1.0" encoding="utf-8"?>
<!-- Generator: Adobe Illustrator 19.0.0, SVG Export Plug-In . SVG Version: 6.00 Build 0)  -->
<svg version="1.1" id="Layer_1" xmlns="http://www.w3.org/2000/svg" xmlns:xlink="http://www.w3.org/1999/xlink" x="0px" y="0px"
	 width="48px" height="48px" viewBox="0 0 48 48" enable-background="new 0 0 48 48" xml:space="preserve">
<g id="XMLID_2517_">
	<rect id="XMLID_2528_" fill="none" width="48" height="48"/>
	<g id="XMLID_2518_">
		<g id="XMLID_2520_">
			<circle id="XMLID_2527_" fill="#FDD835" cx="24" cy="24" r="20"/>
			<path id="XMLID_2524_" fill="#FFFFFF" fill-opacity="0.1" d="M24,4.25c11,0,19.93,8.89,20,19.88c0-0.04,0-0.08,0-0.12
				c0-11.05-8.95-20-20-20S4,12.95,4,24c0,0.04,0,0.08,0,0.12C4.07,13.14,13,4.25,24,4.25z"/>
			<path id="XMLID_2521_" fill="#BF360C" fill-opacity="0.1" d="M44,23.88C43.93,34.86,35,43.75,24,43.75S4.07,34.86,4,23.88
				c0,0.04,0,0.08,0,0.12c0,11.05,8.95,20,20,20s20-8.95,20-20C44,23.96,44,23.92,44,23.88z"/>
		</g>
		<radialGradient id="XMLID_2_" cx="9.9725" cy="10.1156" r="39.7943" gradientUnits="userSpaceOnUse">
			<stop  offset="0" style="stop-color:#FFFFFF;stop-opacity:0.1"/>
			<stop  offset="1" style="stop-color:#FFFFFF;stop-opacity:0"/>
		</radialGradient>
		<circle id="XMLID_2519_" fill="url(#XMLID_2_)" cx="24" cy="24" r="20"/>
	</g>
</g>
</svg>
