<?xml version="1.0" encoding="utf-8"?>
<!-- Generator: Adobe Illustrator 16.0.4, SVG Export Plug-In . SVG Version: 6.00 Build 0)  -->
<!DOCTYPE svg PUBLIC "-//W3C//DTD SVG 1.1//EN" "http://www.w3.org/Graphics/SVG/1.1/DTD/svg11.dtd">
<svg version="1.1" id="Isolation_Mode" xmlns="http://www.w3.org/2000/svg" xmlns:xlink="http://www.w3.org/1999/xlink" x="0px"
	 y="0px" width="229.34px" height="276.823px" viewBox="0 0 229.34 276.823" enable-background="new 0 0 229.34 276.823"
	 xml:space="preserve">
<circle fill="none" stroke="#00B6EE" stroke-width="5" stroke-miterlimit="10" cx="93.876" cy="153.789" r="16.165"/>
<circle fill="none" stroke="#000000" stroke-width="4" stroke-miterlimit="10" cx="93.876" cy="153.692" r="91.876"/>
<path fill="none" stroke="#000000" stroke-width="2" stroke-linecap="round" stroke-miterlimit="10" d="M132.402,47.809
	c0.336,0.278,32.489,9.929,50.419,40.115"/>
<path fill="none" stroke="#000000" stroke-width="2" stroke-linecap="round" stroke-miterlimit="10" d="M132.402,23.941
	c0,0,50.419,11.832,70.924,55.759"/>
<path fill="none" stroke="#000000" stroke-width="2" stroke-linecap="round" stroke-miterlimit="10" d="M132.402,1
	c0,0,64.213,14.031,95.938,72.599"/>
<path d="M169.579,203.328c4.571,7.973-6.534-7.457,3.732-12.512c6.309-2.672,9.712,1.588,9.712,1.588s17.878,26.33,24.548,40.809
	c4.935,18.464-3.606,29.6-16.862,38.146c-13.255,8.546-23.717,3.188-33.726-2.493c-10.01-5.682-24.226-6.985-33.11-6.598
	c-8.885,0.387-7.452-6.591-6.281-8.801c4.294-11.31,20.807-9.355,20.807-9.355l-29.63-46.641c0,0-6.673-8.064,1.65-13.09
	c8.323-5.023,11.441,1.911,12.524,3.428c0.464,0.65,5.277,8.455,10.629,17.164l3.114,5.07c-3.736-6.09-0.441-10.658,2.723-12
	c7.2-4.712,11.051,2.646,11.051,2.646l2.714,4.509c-2.714-4.509-2.497-8.405,1.43-10.648c0,0,2.473-1.754,4.863-1.397
	C162.081,193.541,165.567,196.329,169.579,203.328"/>
<path fill="none" stroke="#FFFFFF" stroke-width="2" stroke-linecap="round" stroke-linejoin="round" stroke-miterlimit="10" d="
	M169.579,203.328c4.571,7.973-6.534-7.457,3.732-12.512c6.309-2.672,9.712,1.588,9.712,1.588s17.878,26.33,24.548,40.809
	c4.935,18.464-3.606,29.6-16.862,38.146c-13.255,8.546-23.717,3.188-33.726-2.493c-10.01-5.682-24.226-6.985-33.11-6.598
	c-8.885,0.387-7.452-6.591-6.281-8.801c4.294-11.31,20.807-9.355,20.807-9.355l-29.63-46.641c0,0-6.673-8.064,1.65-13.09
	c8.323-5.023,11.441,1.911,12.524,3.428c0.464,0.65,5.277,8.455,10.629,17.164l3.114,5.07c-3.736-6.09-0.441-10.658,2.723-12
	c7.2-4.712,11.051,2.646,11.051,2.646l2.714,4.509c-2.714-4.509-2.497-8.405,1.43-10.648c0,0,2.473-1.754,4.863-1.397
	C162.081,193.541,165.567,196.329,169.579,203.328z"/>
<line fill="none" stroke="#FFFFFF" stroke-width="2" stroke-linecap="round" stroke-linejoin="round" stroke-miterlimit="10" x1="170.285" y1="204.725" x2="176.131" y2="214.898"/>
<line fill="none" stroke="#FFFFFF" stroke-width="2" stroke-linecap="round" stroke-linejoin="round" stroke-miterlimit="10" x1="152.867" y1="204.725" x2="163.073" y2="221.66"/>
<line fill="none" stroke="#FFFFFF" stroke-width="2" stroke-linecap="round" stroke-linejoin="round" stroke-miterlimit="10" x1="136.121" y1="209.285" x2="149.204" y2="229.203"/>
<path d="M57.098,158.072c-2.386,0-4.319-1.934-4.319-4.32c0-2.385,1.934-4.319,4.319-4.319c2.387,0,4.32,1.935,4.32,4.319
	C61.418,156.139,59.484,158.072,57.098,158.072"/>
<path d="M93.949,111.784c2.386,0,4.32,1.935,4.32,4.319c0,2.387-1.935,4.32-4.32,4.32s-4.319-1.934-4.319-4.32
	C89.63,113.719,91.563,111.784,93.949,111.784"/>
<path d="M68.466,123.914c2.387,0,4.32,1.936,4.32,4.32c0,2.387-1.934,4.32-4.32,4.32c-2.386,0-4.32-1.934-4.32-4.32
	C64.146,125.85,66.08,123.914,68.466,123.914"/>
</svg>
